<svg id="element" height="512" viewBox="0 0 500 500" width="512" xmlns="http://www.w3.org/2000/svg"><path d="m465.491 485.57c-37.651.467-75.445 4.325-113.063 2.255-36.822-3.336-73.858-10.676-110.919-6.577-18.765 2.076-37.489 4.687-56.18 7.368a3.655 3.655 0 0 0 -2.056-.28 11.732 11.732 0 0 1 -10.162-3.608c-6.233-6.318-9.712-17.931-12.493-24.347q-8.189-18.118-17.879-35.509a457.821 457.821 0 0 0 -31.762-49.387c-3.142-4.215-6.834-8.178-8.855-13.078 25.135-5.306 39.443 21.507 51.443 39.379 5.208 7.866 31.936 48.022 40.5 46.56 46.328-9.92 90.394-44.561 139.193-36.213 9.124 2.284 16.81 8.389 26.053 10.177 9.375 1.813 19.548.706 29.023.306 23.116-.975 46.159-3.141 69.187-5.305 4.611-.434 4.656-7.7 0-7.258-22.124 1.52-78.442 10.195-93.446-7.613-56.894-54.677-120.673-4.394-181.807-76.575a2.94 2.94 0 0 0 -4.72.168c-12.212 14.028-2.487 37.589 8.862 49.561 12.841 13.745 30.752 23.161 47.449 31.923-15.864 8.373-30.437 18.888-46.824 26.239a10.369 10.369 0 0 1 -1.69-.552c-10.305-12.984-19.775-26.319-28.9-40.1-6.976-10.605-13.631-21.8-23.869-29.631-9.792-7.492-23.9-11.369-35.393-5.528a2.487 2.487 0 0 0 -1.414 1.644c-1.494 6.388 4.155 12.37 7.63 17.2 6.785 9.413 13.393 18.957 19.565 28.785-19.242-15.2-50.189-28.059-72.43-12.03a2.689 2.689 0 0 0 -.67 3.305c-.407 4.352 13.41 9.292 16.938 11.735q12.845 7.149 25.19 15.153c-18.618-3.244-53.414-6.112-56.274 19.676a2.42 2.42 0 0 0 2.394 2.53c11.349 2.34 23.2 1.668 34.669 3.827a189.853 189.853 0 0 1 20.441 4.956c-12.761.565-34.751 4.341-36.694 20.162-.541 1.729.325 3.865 2.667 3.76a297.732 297.732 0 0 1 115.06 15.386c6.33 2.747 14.234.618 20.757-1.231 13.257-1.44 26.5-2.985 39.75-4.494 37.188-4.5 74.268 1.468 111.2 5.631 39.758 3.265 79.7-1.36 119.523-1.769 4.242-.141 4.262-6.742.006-6.601zm-422.191-45.118c10.479-19.987 46.766-10.095 64.451-5.919 15.449 10.967 29.449 23.667 43.249 36.508-33.542-16.31-69.65-31.925-107.7-30.589zm26.449-38.6c-3.207-1.712-6.515-3.6-9.924-5.142 28.78-10.563 54.735 11.586 75.236 29.129 6.853 12.108 13.107 24.551 18.845 37.219a385.249 385.249 0 0 0 -84.162-61.207z"/><path d="m38.9 14.43c37.651-.467 75.445-4.325 113.063-2.255 36.821 3.336 73.858 10.676 110.918 6.577 18.765-2.076 37.489-4.687 56.18-7.368a3.665 3.665 0 0 0 2.056.28 11.731 11.731 0 0 1 10.162 3.608c6.233 6.318 9.712 17.931 12.494 24.347q8.188 18.118 17.879 35.509a457.66 457.66 0 0 0 31.761 49.387c3.142 4.215 6.835 8.178 8.855 13.078-25.135 5.307-39.443-21.507-51.442-39.379-5.208-7.866-31.937-48.022-40.5-46.56-46.329 9.92-90.4 44.561-139.193 36.213-9.125-2.284-16.81-8.389-26.054-10.177-9.375-1.813-19.547-.706-29.022-.306-23.117.975-46.159 3.141-69.188 5.3-4.61.434-4.656 7.7 0 7.258 22.124-1.52 78.442-10.2 93.447 7.612 56.893 54.677 120.672 4.395 181.807 76.576a2.94 2.94 0 0 0 4.72-.168c12.212-14.028 2.486-37.588-8.863-49.561-12.841-13.745-30.751-23.162-47.448-31.923 15.868-8.369 30.437-18.878 46.824-26.234a10.358 10.358 0 0 1 1.689.552c10.305 12.984 19.775 26.319 28.9 40.1 6.975 10.6 13.63 21.8 23.868 29.631 9.792 7.492 23.9 11.369 35.393 5.528a2.483 2.483 0 0 0 1.414-1.644c1.494-6.388-4.155-12.37-7.63-17.2-6.785-9.413-13.392-18.957-19.565-28.785 19.243 15.2 50.189 28.059 72.43 12.03a2.691 2.691 0 0 0 .671-3.3c.407-4.352-13.411-9.292-16.938-11.735q-12.846-7.149-25.191-15.153c18.618 3.244 53.414 6.112 56.275-19.676a2.421 2.421 0 0 0 -2.394-2.53c-11.35-2.34-23.2-1.668-34.669-3.827a189.813 189.813 0 0 1 -20.442-4.956c12.762-.565 34.751-4.341 36.694-20.162.541-1.729-.325-3.865-2.666-3.76a297.727 297.727 0 0 1 -115.064-15.392c-6.331-2.747-14.231-.619-20.758 1.235-13.256 1.44-26.5 2.984-39.75 4.493-37.188 4.5-74.268-1.467-111.2-5.63-39.761-3.269-79.702 1.356-119.523 1.764-4.24.143-4.26 6.744 0 6.603zm422.2 45.117c-10.48 19.988-46.767 10.1-64.452 5.92-15.462-10.967-29.459-23.667-43.261-36.508 33.542 16.31 69.65 31.925 107.706 30.588zm-26.45 38.6c3.207 1.712 6.515 3.6 9.924 5.142-28.779 10.563-54.735-11.586-75.236-29.129-6.853-12.108-13.106-24.551-18.844-37.219a385.22 385.22 0 0 0 84.149 61.208z"/><path d="m58.865 235.71a37.119 37.119 0 0 1 -15.573 3.237c-5.109.065-5.334 7.678-.186 8a85.712 85.712 0 0 1 9.6 1.045c7.911 1.364 14.348 10.458 16.018 22.628 1.189 8.681 3.072 27.191 3.091 27.377.5 4.7 7.451 4.758 7.959 0 .018-.186 1.9-18.7 3.091-27.376 1.669-12.171 8.106-21.264 16.016-22.629a85.838 85.838 0 0 1 9.606-1.045c5.192-.33 4.925-8.067-.33-7.993a37.322 37.322 0 0 1 -15.427-3.239c-5.35-2.408-9.7-9.494-10.576-17.232-1.115-9.817-2.356-28.752-2.369-28.942-.357-4.888-7.614-4.945-7.982 0-.013.19-1.253 19.123-2.367 28.942-.873 7.733-5.223 14.817-10.571 17.227z"/><path d="m422.063 279.526c-.357-4.887-7.615-4.945-7.983 0-.012.189-1.253 19.123-2.367 28.941-.878 7.738-5.227 14.825-10.576 17.232a37.47 37.47 0 0 1 -15.429 3.24c-5.175-.079-5.584 7.645-.33 7.993a85.634 85.634 0 0 1 9.607 1.045c7.91 1.364 14.346 10.457 16.016 22.628 1.191 8.681 3.073 27.19 3.091 27.376.5 4.7 7.451 4.758 7.959 0 .019-.186 1.9-18.7 3.092-27.376 1.669-12.171 8.105-21.264 16.016-22.628a85.465 85.465 0 0 1 9.606-1.045c5.194-.327 4.922-8.082-.329-7.993a37.425 37.425 0 0 1 -15.429-3.24c-5.349-2.407-9.7-9.493-10.576-17.232-1.114-9.816-2.355-28.751-2.368-28.941z"/><path d="m206.878 214.009a4 4 0 0 0 -1.787-5.367c-17.227-7.833-69.933-36.611-74.44-25.4-8 11.39 66.255 51.851 81.116 61.487a43.264 43.264 0 0 0 5.439 28.1c-17.315 7.772-29.991 12.248-36.4 13.52 2.728-2.709 8.337-7.424 19.8-15.032 4.327-2.973.011-9.5-4.424-6.666-8.672 6.266-29.593 18.611-25.239 26.872 5.4 9.973 38.947-7.3 51.029-12.073 14.479 17.622 43.811 19.853 60.813 4.311 16.238 7.421 82.758 44.62 88.06 32.326 6.669-9.227-38.817-35.055-53.158-44.694-4.5-2.687-8.649 3.942-4.215 6.8 25.782 15.984 39.371 25.95 45.65 31.417-10.611-3.223-33.555-12.832-70.576-31.87a42.93 42.93 0 0 0 8.887-21.18 4 4 0 0 0 -7.936-1.01 34.981 34.981 0 0 1 -8.209 18.43q-5.546-2.894-11.465-6.042c-4.683-2.393-8.36 4.513-3.76 7.062q4.512 2.4 8.941 4.719c-13.2 10.041-34.21 8.156-45.406-3.8 17.646-8.413 110.257-54.636 101.549-69.191-2.27-4.288-8.243-5.181-30.968 3.592a4 4 0 1 0 2.881 7.463c9.452-3.648 15.043-5.183 18.259-5.808-4.29 4.222-13.8 11.3-27.883 20.153-16.254-34.5-67.585-31.037-79.658 4.507-37.146-21.772-61.757-38.545-71.4-46.891 8.792 2.67 26.909 9.915 59.136 26.042a4 4 0 0 0 5.364-1.777zm47.661 1.808a35.031 35.031 0 0 1 32.027 20.559c-8.751 5.319-20.2 11.817-31.541 17.839a11.127 11.127 0 0 1 -10.623-.1c-8.176-4.543-16.237-9.117-23.563-13.356a35.3 35.3 0 0 1 33.7-24.942zm-35.185 33.313c7.055 4.063 14.327 8.174 21.744 12.292q-8.781 4.425-16.583 8.061a35.12 35.12 0 0 1 -5.161-20.353z"/><path d="m241.379 172.424c1.028-5.672-7.381-7.344-8.6-1.711-1.029 5.672 7.38 7.344 8.6 1.711z"/><path d="m127.406 241.683c-1.028 5.673 7.381 7.344 8.6 1.711 1.029-5.672-7.38-7.344-8.6-1.711z"/><path d="m273.281 328.442c-1.029 5.672 7.381 7.343 8.6 1.71 1.029-5.672-7.381-7.344-8.6-1.71z"/><path d="m374.745 250.025c5.672 1.028 7.344-7.382 1.711-8.6-5.672-1.025-7.344 7.38-1.711 8.6z"/><path d="m460.237 375.361c5.672 1.028 7.344-7.381 1.711-8.6-5.672-1.029-7.348 7.38-1.711 8.6z"/><style type="text/css">
	path{
        fill:#000;
    }
</style>
<path d="m74.944 144.858c5.672 1.028 7.344-7.381 1.711-8.6-5.672-1.029-7.344 7.38-1.711 8.6z"/>
<path d="m31.411 316.138c-1.028 5.672 7.382 7.344 8.6 1.711 1.029-5.672-7.38-7.344-8.6-1.711z"/>
<path d="m434.718 204.319c1.028-5.672-7.382-7.344-8.6-1.711-1.029 5.673 7.382 7.344 8.6 1.711z"/></svg>