<?xml version="1.0" encoding="utf-8"?>
<!-- Generator: Adobe Illustrator 25.0.1, SVG Export Plug-In . SVG Version: 6.00 Build 0)  -->
<svg version="1.1" id="Layer_1" xmlns="http://www.w3.org/2000/svg" xmlns:xlink="http://www.w3.org/1999/xlink" x="0px" y="0px"
	 viewBox="0 0 558.9 480.1" style="enable-background:new 0 0 558.9 480.1;" xml:space="preserve">
<style type="text/css">
	.st0{fill:#0A0B14;}
	.st1{fill:#F12B1B;}
</style>
<g id="Layer_1-2">
	<g id="XMLID_1_">
		<g>
			<path class="st0" d="M403.1,331.5c19.1-39.2,38.4-78.3,57-117.7c12.8-27.1,25.5-54.4,31.7-84c3-14.1,4.6-28.1,1.6-42.6
				c-3.5-17-13.2-27.8-29.2-33.5c-10.4-3.7-11.3-5.1-7.2-15.1c8.8-21.7,25.4-34.3,48-38.1c19.6-3.2,38,9.3,47.3,28.8
				c4.1,8.7,5.6,18,6.3,27.7c2.3,33.5-9,63.7-22.6,93c-22.2,47.8-49.6,92.9-76.2,138.3c-10.7,18.3-21,36.9-30.6,55.8L403.1,331.5z"
				/>
			<path class="st1" d="M271.9,480c-13.5-0.2-24.2-11.3-23.9-24.8c0.2-13.5,11.3-24.2,24.8-24c13.4,0.2,24.1,11.3,23.9,24.7
				C296.3,469.4,285.3,480.1,271.9,480z"/>
			<path class="st0" d="M275.3,307.1c-2.5,3.1-5.5,6-7.4,9.5l-22.8-8.5c5.6-9.5,11.2-18.9,16.8-28.4c1.6-3.3,2-7.1,1-10.6
				c-6.4-20.4-13.3-40.6-20.1-60.9c-1.9-5.6-5.1-9.9-11-12.4c-4.6-2-8.8-5.1-12.8-8.1c-3.7-2.7-5.7-7.1-3.2-10.9
				c1.4-2.2,5.8-3.3,8.9-3.5c8.5-0.5,17.2-0.1,24.9-0.1c30.6,0.6,60.3,1.5,89.9,1.8c9.5,0.1,19-1.2,28.6-1.8
				c5.3-0.3,6.3,2.2,3.7,6.4c-1.6,2.6-3.4,5.6-5.9,7.1c-5.2,3.1-10.6,5.9-16.1,8.3c-7,3.2-9,6-7.4,12.3
				c12.9,50.7,24.2,101.8,41.4,151.3c0.2,0.6,0.4,1.2,0.6,1.8c0.8,1.6,1.7,3.3,2.5,4.9c1.1-1.4,2.1-2.9,2.9-4.4
				c2.2-4.9,4-10.1,6.4-15c2.3-4.8,4.6-9.5,6.9-14.2l26.1,12.7c-8.4,16.7-16.3,33.7-23.3,51.1c-8,19.8-16,39.7-23.7,59.6
				c-2.3,5.9-3.8,12.2-5.5,18.3c-1,3.5-2.1,6.9-6.7,6.9c-4,0-8.3,1-11.1-3.5c-8.1-12.6-16.9-24.8-24.5-37.7
				c-22.7-38.7-39.1-80.3-54.7-122.2C278.5,313.3,276.8,310.2,275.3,307.1z"/>
			<path class="st0" d="M268,316.5c-26.2,50.1-52.3,100.2-78.2,150.5c-1.3,2.6-2.7,5.1-3.9,7.7c-1.6,3.6-3.9,5.4-8.1,5.4
				c-4.5,0.1-7-1.6-8.9-5.6c-22.8-46.4-45.7-92.9-68.6-139.2C80.5,295.2,60.7,255.1,41,214.9c-3.2-6.6-7.9-11.1-16.1-11.8
				c-5.9-0.5-11.8-2.6-17.5-4.5c-4.4-1.5-7.9-4.5-7.4-9.9c0.5-5.1,4.6-5.5,8.4-6.2c27.2-5.1,54.4-10.3,81.6-15.2
				c11.2-2,22.6-3.3,33.9-5.3c11.7-2,13.5-0.9,17.5,10.1c22,60.6,44.1,121.2,66.2,181.7c0.1,0.3,0.2,0.6,0.3,0.9
				c1.6,2.2,3.1,4.4,4.7,6.6c1.4-2,2.9-4,4.2-6.1c9.4-15.7,18.9-31.4,28.3-47.2L268,316.5z"/>
		</g>
		<g>
		</g>
	</g>
</g>
</svg>
